<?xml version="1.0" encoding="UTF-8"?>
<svg id="Layer_2" data-name="Layer 2" xmlns="http://www.w3.org/2000/svg" viewBox="0 0 646.06 305.19">
  <defs>
    <style>
      .cls-1 {
        fill: #fff;
      }

      .cls-2 {
        fill: #01c977;
      }
    </style>
  </defs>
  <g id="Layer_1-2" data-name="Layer 1">
    <g>
      <g>
        <path class="cls-1" d="M0,211.73c0-36.52,27.21-64.27,63.02-64.27,28.82,0,54.25,18.62,58.19,44.4h-23.1c-4.12-14.14-18.26-23.99-35.09-23.99-23.45,0-41.36,18.98-41.36,43.86s17.9,44.22,41.36,44.22c17.01,0,31.51-10.38,35.27-25.6h23.27c-5.01,27.21-29,46.01-58.54,46.01-35.81,0-63.02-27.93-63.02-64.63Z"/>
        <path class="cls-1" d="M227.38,187.02v87.55h-20.05v-15.4c-6.27,10.92-17.01,17.19-30.97,17.19-23.28,0-41.9-20.41-41.9-45.65s18.62-45.48,41.9-45.48c13.96,0,24.71,6.27,30.97,17.19v-15.4h20.05ZM207.33,230.71c0-15.04-11.46-26.5-26.68-26.5s-26.5,11.82-26.5,26.5,11.64,26.67,26.5,26.67,26.68-11.46,26.68-26.67Z"/>
        <path class="cls-1" d="M341.25,230.89c0,25.24-18.44,45.48-41.71,45.48-14.14,0-24.89-6.45-31.15-17.54v46.37h-19.87v-118.17h19.87v15.76c6.27-11.1,17.01-17.54,31.15-17.54,23.27,0,41.71,20.41,41.71,45.65ZM321.74,230.89c0-14.86-11.64-26.68-26.5-26.68s-26.86,11.46-26.86,26.68,11.46,26.5,26.86,26.5,26.5-11.82,26.5-26.5Z"/>
        <path class="cls-1" d="M381,159.1c0,7.16-5.91,12.89-12.89,12.89s-12.71-5.73-12.71-12.89,5.73-12.71,12.71-12.71,12.89,5.91,12.89,12.71ZM377.96,187.02v87.55h-19.87v-87.55h19.87Z"/>
        <path class="cls-1" d="M427.37,206v35.27c0,11.1,6.8,15.58,16.47,15.58,2.15,0,4.48-.18,6.44-.72v18.44c-3.04.72-7.52,1.07-10.74,1.07-19.34,0-32.23-11.82-32.23-34.01v-35.63h-16.65v-18.98h16.65v-23.45h20.05v23.45h22.92v18.98h-22.92Z"/>
        <path class="cls-1" d="M549.83,187.02v87.55h-20.05v-15.4c-6.27,10.92-17.01,17.19-30.97,17.19-23.27,0-41.89-20.41-41.89-45.65s18.62-45.48,41.89-45.48c13.97,0,24.71,6.27,30.97,17.19v-15.4h20.05ZM529.78,230.71c0-15.04-11.46-26.5-26.67-26.5s-26.5,11.82-26.5,26.5,11.64,26.67,26.5,26.67,26.67-11.46,26.67-26.67Z"/>
        <path class="cls-1" d="M590.84,274.57h-19.87v-125.32h19.87v125.32Z"/>
      </g>
      <g>
        <g>
          <path class="cls-1" d="M92.38,41.18c0,22.38-17.01,38.67-40.1,38.67h-27.03v48.34H4.3V2.86h47.98c23.1,0,40.1,16.29,40.1,38.32ZM71.26,41.18c0-10.39-8.06-18.26-18.98-18.26h-27.03v36.88h27.03c10.92,0,18.98-8.06,18.98-18.62Z"/>
          <path class="cls-1" d="M158.63,39.92v18.26c-2.86-.72-5.91-1.26-8.77-1.26-12.71,0-23.1,8.77-23.1,24.53v46.73h-19.87V40.64h19.87v11.64c5.19-8.41,13.25-13.43,23.63-13.43,2.69,0,5.55.54,8.23,1.07Z"/>
          <path class="cls-1" d="M252.45,84.51c0,25.96-19.87,45.48-45.48,45.48s-45.3-19.52-45.3-45.48,19.69-45.65,45.3-45.65,45.48,19.69,45.48,45.65ZM181.37,84.51c0,14.86,11.1,26.32,25.6,26.32s25.78-11.46,25.78-26.32-11.28-26.5-25.78-26.5-25.6,11.46-25.6,26.5Z"/>
          <path class="cls-1" d="M381.26,12.71c0,7.16-5.91,12.89-12.89,12.89s-12.71-5.73-12.71-12.89,5.73-12.71,12.71-12.71,12.89,5.91,12.89,12.71ZM378.22,40.64v87.55h-19.87V40.64h19.87Z"/>
          <path class="cls-1" d="M536.66,74.66v53.53h-20.23v-49.05c0-13.07-7.16-21.12-18.98-21.12-9.85,0-19.52,6.27-19.52,21.12v49.05h-20.05v-49.05c0-13.25-7.34-21.12-19.16-21.12-9.67,0-19.52,6.09-19.52,21.12v49.05h-19.87V40.64h19.87v12.36c6.45-10.74,17.54-14.14,26.68-14.14,12.71,0,21.66,4.83,27.03,15.4,5.01-9.49,15.93-15.4,27.93-15.4,21.13,0,35.81,13.79,35.81,35.8Z"/>
          <path class="cls-1" d="M646.06,40.64v87.55h-20.05v-15.4c-6.27,10.92-17.01,17.19-30.97,17.19-23.27,0-41.89-20.41-41.89-45.65s18.62-45.48,41.89-45.48c13.97,0,24.71,6.27,30.97,17.19v-15.4h20.05ZM626.01,84.33c0-15.04-11.46-26.5-26.67-26.5s-26.5,11.82-26.5,26.5,11.64,26.67,26.5,26.67,26.67-11.46,26.67-26.67Z"/>
        </g>
        <g>
          <g>
            <polygon class="cls-1" points="304.1 63.96 303.3 62.83 319.13 40.63 342.76 40.63 315.15 79.65 304.1 63.96"/>
            <polygon class="cls-1" points="344.92 128.19 320.91 128.19 303.18 103.36 303.98 102.26 315.3 86.34 344.92 128.19"/>
          </g>
          <polygon class="cls-2" points="300.84 66.26 312.7 83.11 300.73 99.94 300.69 99.9 280.63 128.19 256.84 128.19 288.87 83.07 258.63 40.63 282.77 40.63 300.84 66.26"/>
        </g>
      </g>
    </g>
  </g>
</svg>